<svg width="2828" height="333" xmlns="http://www.w3.org/2000/svg" xmlns:xlink="http://www.w3.org/1999/xlink" xml:space="preserve" overflow="hidden"><g transform="translate(-786 -1071)"><path d="M3425.81 1282.41C3416.53 1283.04 3406.57 1283.9 3395.93 1285.01L3393.26 1285.31 3415.44 1301.35C3412.86 1303.44 3410.26 1305.46 3407.62 1307.42L3403.58 1310.3 3406.28 1310.57C3421.52 1311.72 3428.03 1309.11 3425.81 1302.75ZM3483.53 1281.97C3506.04 1289.08 3523.32 1295.5 3535.37 1301.21 3540.9 1302.87 3543.01 1306.52 3541.68 1312.15 3539.77 1320.48 3537.5 1327.91 3534.87 1334.45 3531.92 1340.06 3527.13 1340.66 3520.52 1336.25 3519.22 1334.94 3516.77 1332.6 3513.17 1329.24 3498.07 1317.07 3484.14 1306.71 3471.37 1298.15ZM2232.58 1277.37 2232.58 1301.03 2264.17 1301.03 2264.17 1277.37ZM1142.63 1273.67 1142.63 1299.11 1271.38 1299.11 1271.38 1273.75 1269.43 1287.04 1144.84 1287.04ZM1729.21 1266.77C1759.52 1277.12 1781.07 1285.49 1793.86 1291.89 1797.86 1293.55 1799.19 1297.83 1797.84 1304.74 1793.97 1317.6 1790.09 1327.61 1786.18 1334.75 1782.48 1340.16 1777.44 1340.67 1771.08 1336.28 1757.78 1319.81 1740.11 1301.95 1718.07 1282.7ZM3208.28 1265.73C3215.45 1272.52 3222.54 1278.18 3229.55 1282.71 3235.1 1277.14 3240 1271.48 3244.26 1265.73ZM1901.48 1261.87C1901.3 1262.22 1900.53 1263.42 1899.17 1265.47 1896.62 1269.92 1894.92 1272.17 1894.05 1272.21 1895.16 1272.28 1897.94 1272.63 1902.4 1273.25 1906.19 1274.21 1908.76 1274.78 1910.1 1274.98L1910.74 1275.03 1910.81 1274.7C1910.89 1274.4 1911.01 1274.02 1911.17 1273.55 1914.32 1269.77 1916.8 1265.88 1918.63 1261.87ZM1661.34 1260.13 1695.39 1287.12C1665.94 1312.02 1636.48 1329.97 1607.03 1340.97L1595.55 1326.65C1622.46 1306.33 1644.39 1284.16 1661.34 1260.13ZM1247.23 1257.6 1243.17 1261.31 1244.73 1261.31ZM2723.79 1247.32 2723.79 1297.15 2763.16 1297.15 2763.16 1247.32ZM2208.78 1235.68C2208.65 1235.94 2208.33 1237.09 2207.82 1239.12 2207.17 1244.16 2206.56 1246.76 2205.99 1246.91L2229.3 1246.91 2229.3 1235.71 2208.85 1235.71C2208.85 1235.6 2208.83 1235.59 2208.78 1235.68ZM1224.02 1235.48 1224.02 1261.31 1232.04 1261.31 1231.62 1260.87C1230.86 1259.82 1230.24 1258.44 1229.79 1256.74 1228.33 1249.48 1226.51 1242.66 1224.32 1236.29ZM2173.32 1230.56 2152.16 1242.18 2152.16 1313.62 2152.23 1315.29 2160.02 1297.35C2166.59 1279.31 2170.86 1260.78 2172.84 1241.75ZM3246.96 1227.98 3246.96 1240 3252.98 1240 3263.03 1230.02 3263.03 1227.98ZM1975.03 1227.75C1974.05 1231.96 1971.47 1236.68 1967.28 1241.92L1949.05 1236.71 1966.24 1248.43 1955.37 1262.4C1952.24 1270.54 1948.9 1277.37 1945.35 1282.89 1949.08 1284.08 1953.82 1285.64 1959.58 1287.57 1965.91 1289.97 1968.77 1294.06 1968.14 1299.83 1966.77 1307.34 1965.19 1312.69 1963.39 1315.89 1973.09 1304.53 1982.55 1292.24 1991.77 1279.02 1983.63 1263.78 1978.05 1246.69 1975.03 1227.75ZM1927.43 1202.35 1927.43 1225.24 1908.83 1225.24 1919.69 1228.84C1918.88 1230.89 1918.18 1233.09 1917.59 1235.46 1917.24 1235.98 1916.92 1236.4 1916.63 1236.73L1916.26 1237.07 1925.37 1237.07 1932.9 1225.71 1947.41 1235.59 1950.05 1230.11C1951 1228.06 1951.94 1225.97 1952.86 1223.83L1955.17 1218.31 1952.41 1221.29C1951.32 1222.38 1950.18 1223.43 1949.01 1224.44 1943.84 1227.4 1939.86 1226.21 1937.05 1220.86 1934.19 1215.14 1931.54 1210.01 1929.11 1205.45ZM2929.42 1201.46 2959.34 1225.24 2949.37 1239.57 2920.41 1239.57 2920.41 1281.24C2933.14 1280.05 2947.89 1277.84 2964.69 1274.6L2967.89 1298.45C2927.36 1313.56 2887.07 1324.64 2847.03 1331.69L2834.8 1287.92C2851.85 1287.92 2867.05 1287.08 2880.39 1285.41L2880.39 1239.57 2849.69 1239.57 2843.33 1212.87 2918.75 1212.87ZM3445.88 1195.98 3462.99 1199.54C3448.25 1211.35 3437.81 1218.05 3431.64 1219.64 3437.94 1219.64 3444.4 1219.64 3451.04 1219.64 3458.27 1213.01 3465.82 1206.03 3473.7 1198.72L3508.36 1217.3 3508.72 1215.25C3509.2 1212.9 3509.74 1210.49 3510.37 1208.03 3512.26 1201.74 3513.53 1197.72 3514.16 1195.98ZM1430.2 1193.63 1472.99 1212.05C1454.25 1244.67 1434.62 1269.56 1414.09 1286.72 1429.17 1286.75 1452.56 1286.19 1484.27 1285.03 1479.53 1278.45 1474.15 1270.49 1468.13 1261.14L1483.01 1246.82C1508.05 1263.73 1527.21 1278.19 1540.51 1290.22 1544.88 1293.34 1545.73 1298.25 1543.04 1304.96 1539.12 1314.76 1532.93 1324.54 1524.47 1334.3 1517.5 1340.65 1511.75 1340.07 1507.24 1332.56 1504.08 1324.96 1500.96 1317.95 1497.87 1311.53 1459 1318.45 1416.03 1324.47 1368.97 1329.58L1360.8 1288.19C1372.9 1286.12 1382.25 1281.5 1388.83 1274.33 1405.01 1251.91 1418.8 1225.02 1430.2 1193.63ZM2210.29 1192.12 2210.29 1208.13 2210.29 1210.92 2229.3 1210.92 2229.3 1192.12ZM2612.06 1190.79C2624.99 1213.42 2634.62 1233.3 2640.97 1250.41 2642.89 1254.99 2642.19 1258.76 2638.87 1261.72 2633.13 1266.75 2627.01 1270.9 2620.51 1274.14 2614.61 1276.9 2610.65 1275.31 2608.62 1269.36 2606.08 1247.74 2601.95 1223.43 2596.24 1196.43ZM3246.96 1189.24 3246.96 1204.12 3263.03 1204.12 3263.03 1189.24ZM3196.58 1189.24 3196.58 1204.12 3212.66 1204.12 3212.66 1189.24ZM1688.07 1187.26 1688.07 1231.28 1717.8 1231.28 1717.8 1187.26ZM2001.22 1187.24C2001.14 1187.41 2000.42 1189.16 1999.08 1192.51 1997.22 1194.98 1996.08 1196.79 1995.68 1197.93 1999.42 1216.51 2003.7 1232.23 2008.51 1245.08 2013.81 1227.82 2016.78 1208.54 2017.41 1187.24ZM2525.36 1185.64 2563.93 1215.88 2554.15 1234.2 2348.74 1234.2 2342.49 1203.71 2509.96 1203.71ZM1927.43 1185.35 1927.43 1189.49 1932.5 1185.35ZM1968.3 1178.87 1965.27 1185.35 1941.25 1185.35 1942.86 1186.47C1945.14 1188.13 1947.52 1190.05 1949.99 1192.22 1953.86 1195.46 1956.88 1197.81 1959.05 1199.25 1959.93 1199.83 1960.63 1200.5 1961.16 1201.26L1961.35 1201.7 1963.11 1196.45C1964.68 1191.58 1966.19 1186.56 1967.62 1181.39ZM2174.08 1178.72 2171.72 1187.26 2152.16 1187.26 2152.16 1212.8C2155.87 1211.83 2162.27 1209.93 2171.35 1207.1L2173.9 1217.04 2174.08 1212.83ZM3162.28 1175.8 3162.04 1183.4 3144.27 1183.4 3144.27 1214.35 3146.34 1213.76C3151.01 1212.6 3155.61 1210.99 3160.13 1208.94L3162.28 1214.71ZM1271.17 1174.02 1264.57 1186.29 1224.02 1186.29 1224.02 1205.12 1232.65 1205.12 1241.29 1193.71 1268.66 1214.46 1259.82 1230.85 1245.22 1230.85 1246.91 1232.28C1249.44 1234.81 1251.47 1236.84 1252.99 1238.38 1256.08 1241.29 1256.99 1244.51 1255.72 1248.03L1253.94 1251.27 1271.17 1266.99ZM1142.63 1168.86 1142.63 1261.31 1185.91 1261.31 1185.91 1230.85 1150.27 1230.85 1146.01 1205.12 1185.91 1205.12 1185.91 1186.29 1145.52 1186.29ZM3464.88 1159.17 3464.88 1170.25 3517.19 1170.25 3525.5 1159.17ZM1947.3 1153.39 1946.6 1154.14C1944.15 1156.64 1941.68 1159.08 1939.2 1161.45L1927.43 1155.79 1927.43 1161.5 1941.65 1161.5ZM3246.96 1152.43 3246.96 1167.29 3263.03 1167.29 3263.03 1152.43ZM957.825 1150.98C940.175 1172 920.901 1188.43 900.003 1200.28L982.967 1200.28 995.034 1188.44 988.362 1182.75C977.283 1172.81 967.104 1162.22 957.825 1150.98ZM2210.29 1150.46 2210.29 1167.32 2264.17 1167.32 2264.17 1150.46ZM1142.63 1148.49 1142.63 1160.56 1236.45 1160.56 1245.06 1149.15 1271.17 1168.22 1271.17 1148.49ZM3212.66 1146.85 3211.99 1147.22C3208 1149.2 3202.87 1150.97 3196.58 1152.54L3196.58 1165.85 3203.24 1159.68 3212.66 1172.99ZM2995.97 1131.84 2995.97 1149.3 2995.97 1164.45 3019.92 1164.45 3021.12 1163.07 3019.66 1163.07C3017.49 1162.82 3015.2 1161.52 3012.78 1159.18 3009.42 1152.46 3004.05 1143.68 2996.66 1132.83ZM1402.51 1123.35 1444.49 1141.73C1421.89 1185.24 1392.74 1221.58 1357.03 1250.74L1341.8 1238C1369.09 1204.93 1389.32 1166.71 1402.51 1123.35ZM2623.16 1115.89C2638.03 1122.51 2649.91 1128.67 2658.8 1134.37 2662.13 1136.22 2662.76 1139.96 2660.7 1145.6 2657.46 1153.4 2654.37 1158.38 2651.45 1160.54L2663.87 1160.54 2673.58 1148.18 2699.88 1170.03 2689.95 1185.34 2591.99 1185.34 2587.69 1160.54 2634.24 1160.54C2628.82 1151.51 2621.22 1140.48 2611.44 1127.44ZM1479.21 1114.8C1503.86 1161.57 1535.35 1195.59 1573.66 1216.85 1559.74 1225.69 1546.85 1237.3 1535 1251.68 1499.48 1219.14 1473.71 1176.39 1457.67 1123.44ZM1717.8 1114.01 1757.82 1114.01 1757.82 1160.56 1761.95 1160.56 1776.56 1146.3 1807.21 1172.85 1799.34 1187.26 1757.82 1187.26 1757.82 1231.28 1769.4 1231.28 1783.76 1214.17 1819.56 1240.51 1811.89 1257.98 1597.4 1257.98 1591.06 1231.28 1648.05 1231.28 1648.05 1187.26 1608.8 1187.26 1602.45 1160.56 1648.05 1160.56 1648.05 1115.92 1688.07 1115.92 1688.07 1160.56 1717.8 1160.56ZM2955.95 1113.17 2995.97 1113.17 2995.97 1125.91 3007.11 1116.69C3020.78 1122.75 3031.08 1128.61 3038.01 1134.28 3041.88 1136.19 3042.02 1139.83 3038.43 1145.2 3036.91 1147.33 3035.09 1149.69 3032.98 1152.27L3032.97 1152.28 3062.45 1174.74 3052.6 1192.09 2996.91 1192.09C2998.14 1227.97 3005.71 1260.75 3019.6 1290.43 3020.53 1293.2 3021.5 1294.58 3022.51 1294.58 3023.49 1294.58 3024.45 1293.17 3025.38 1290.34 3027.92 1284 3030.68 1275.28 3033.66 1264.17L3052.96 1271.8C3050.43 1288.11 3053.91 1297.55 3063.41 1300.13 3054.59 1330.05 3042.45 1343.75 3027 1341.22 3005.53 1341.85 2988.23 1323.49 2975.1 1286.12 2964.89 1257.41 2958.87 1226.07 2957.06 1192.09L2834.78 1192.09 2830.57 1164.45 2955.95 1164.45 2955.95 1147.39ZM2274.9 1112.36 2307.99 1135.17 2301.35 1143.89 2301.35 1198.76 2265.5 1198.76 2265.5 1210.92 2278.01 1210.92 2287.62 1199.51 2315.83 1220.26 2306.95 1235.71 2265.5 1235.71 2265.5 1252.57 2265.75 1252.57 2276.19 1241.16 2308.95 1263.81 2301.35 1276.31 2301.35 1338.16 2264.17 1338.16 2264.17 1326.76 2232.58 1326.76 2232.58 1338.16 2197.31 1338.16 2197.31 1265.08C2193.91 1288.66 2183.56 1312.07 2166.27 1335.3L2150 1325.01 2148.35 1327.51C2142.53 1334.04 2130.54 1338.58 2112.38 1341.14 2111.69 1333.2 2104.42 1327.65 2090.57 1324.5L2088.39 1305.89C2108.65 1307.78 2117.52 1306.43 2114.98 1301.81L2114.98 1257.55C2110.68 1259.97 2104.77 1262.82 2097.26 1266.11L2083.64 1226.43C2092.81 1225.63 2103.26 1224.11 2114.98 1221.88L2114.98 1187.26 2090.71 1187.26 2086.48 1160.56 2114.98 1160.56 2114.98 1112.38 2152.16 1112.38 2152.16 1159.59 2156.56 1151.1 2174.08 1168.14 2174.08 1119.98 2210.29 1119.98 2210.29 1125.67 2264.44 1125.67ZM1892.16 1112.11 1927.43 1112.11 1927.43 1146.75 1928.08 1145.16C1931.75 1135.77 1935.24 1125.65 1938.55 1114.8L1968.14 1129.77C1963.46 1135.59 1958.71 1141.14 1953.88 1146.42L1948.5 1152.12 1971.21 1167.56 1971.73 1165.43C1975.64 1149.02 1978.94 1131.24 1981.63 1112.11L2022.27 1118.22C2019.7 1134.22 2015.9 1148.01 2010.87 1159.61L2031.64 1159.61 2039.13 1147.24 2070.72 1167.81 2060.99 1187.24 2053.44 1187.24C2051.61 1223.66 2044.07 1253.28 2030.82 1276.08 2041.73 1287.9 2055.98 1298.95 2073.57 1309.23 2063.58 1319.42 2053.51 1330.23 2043.37 1341.65 2026.56 1327.13 2014.99 1314.78 2008.66 1304.6 1998.09 1318.07 1982.27 1331.37 1961.21 1344.5L1943.33 1328.83C1945.69 1327.54 1947.26 1327.38 1948.07 1328.35 1948.11 1328.35 1946.96 1327.57 1944.61 1326 1940.87 1323.51 1935.53 1320.37 1928.58 1316.59 1924.69 1313.99 1922.42 1312.22 1921.75 1311.26 1905.34 1326.37 1879.61 1336.81 1844.55 1342.59L1837.89 1322.36C1860.26 1316.99 1878.31 1309.28 1892.04 1299.23 1881.89 1296.37 1869.23 1292.76 1854.04 1288.39 1856.82 1282.06 1860.36 1275.2 1864.67 1267.8 1866.11 1264.47 1867.32 1262.53 1868.32 1261.97L1868.6 1261.87 1847.9 1261.87 1843.6 1237.07 1878.22 1237.07C1878.57 1235.81 1879.38 1233.23 1880.64 1229.32 1881.98 1224.64 1883.21 1220.57 1884.33 1217.11L1892.16 1219.71 1892.16 1200.55C1884.6 1213.43 1871.57 1224.82 1853.07 1234.74L1838.01 1223.85C1852.77 1210.88 1863.85 1198.05 1871.27 1185.35L1846.93 1185.35 1843.72 1161.5 1864.63 1161.5 1864.59 1161.46C1863.82 1160.51 1863.2 1159.25 1862.72 1157.67 1862.2 1156.65 1861.28 1154.49 1859.96 1151.19 1858.1 1145.63 1854.86 1137.5 1850.24 1126.79L1863.55 1117.65C1873.28 1123.84 1881.39 1130.19 1887.9 1136.7 1892 1140.66 1892.28 1144.73 1888.75 1148.92 1887.48 1151.47 1883.04 1155.65 1875.45 1161.45L1875.36 1161.5 1892.16 1161.5ZM2724.39 1111.99 2761.57 1111.99 2761.57 1153.78 2777.75 1153.78 2787.34 1140.46 2817.6 1164.07 2808.76 1180.48 2761.57 1180.48 2761.57 1220.62 2764.59 1220.62 2775.92 1207.32 2810.76 1229.96 2801.27 1243.42 2801.27 1340 2763.16 1340 2763.16 1323.85 2723.79 1323.85 2723.79 1340 2686.61 1340 2686.61 1290.02 2677.02 1293.91C2662.14 1299.5 2642.74 1305.58 2618.83 1312.14 2608.15 1315.47 2599.6 1317.8 2593.19 1319.13L2584.85 1282.52C2596.99 1280.32 2614.84 1278.31 2638.37 1276.51 2644.48 1247.79 2648.87 1217.95 2651.54 1186.99L2687.55 1194.24C2679.19 1227.42 2670.96 1253.49 2662.84 1272.46 2662.91 1272.54 2665.78 1272.26 2671.46 1271.63 2676.76 1270.3 2681.64 1269.63 2686.12 1269.63L2686.61 1271.77 2686.61 1214.93 2723.79 1214.93 2723.79 1220.62 2724.39 1220.62ZM3424.86 1111.59 3464.88 1111.59 3464.88 1133.43 3510.29 1133.43 3517.81 1120.11 3545.62 1139.9 3534.87 1159.17 3526.25 1159.17 3560.82 1183.73 3547.28 1197.37C3544.45 1200.21 3541.25 1204.29 3537.7 1209.63 3532.42 1216.26 3528.51 1221.21 3525.97 1224.48L3507.5 1222.15 3508.07 1218.94 3500.48 1224.23C3479.64 1238.41 3460.49 1248.9 3443.04 1255.71 3446.08 1255.72 3453.79 1255.72 3466.17 1255.72 3472.15 1255.41 3477.08 1255.17 3480.96 1255.01L3486.63 1254.85 3486.42 1254.74C3485.92 1254.37 3485.37 1253.89 3484.77 1253.29 3482.22 1250.1 3479.66 1246.86 3477.11 1243.57L3491.04 1231.96C3504.59 1239.31 3517.7 1247.41 3530.38 1256.28 3536.11 1260.13 3537.64 1264.76 3534.96 1270.16 3532.31 1275.47 3528.26 1281.53 3522.82 1288.33 3517.28 1291.98 3512.62 1291.44 3508.82 1286.71 3508.03 1285.13 3506.69 1282.76 3504.78 1279.59 3503.76 1277.55 3503.07 1276.27 3502.71 1275.76 3490.48 1277.65 3477.55 1278.88 3463.93 1279.44L3463.93 1308.88C3467.73 1332.4 3453.12 1344.15 3420.11 1344.15 3420.11 1334.02 3413.89 1329.27 3401.46 1329.91L3399.58 1313.14 3391.47 1318.41C3377.73 1326.92 3363.28 1333.81 3348.13 1339.07L3335.55 1325.75C3351.39 1315.11 3366.58 1302.36 3381.13 1287.51L3382.02 1286.57 3379.46 1286.86C3373.8 1287.54 3367.98 1288.27 3361.98 1289.07L3354.58 1259.8C3381.7 1257.78 3399.91 1253.98 3409.21 1248.41 3410.87 1247.58 3413.17 1246.16 3416.11 1244.14L3416.51 1243.86 3414.45 1244.18C3409.59 1244.97 3403.65 1246.01 3396.64 1247.28 3389.18 1247.89 3383.03 1248.52 3378.19 1249.17L3370.71 1220.58C3373.6 1220.58 3376.05 1220.33 3378.07 1219.83 3385.09 1218.55 3391.54 1216.74 3397.4 1214.4 3402.85 1211.97 3410.1 1205.83 3419.17 1195.98L3372.73 1195.98C3372.73 1202.37 3372.41 1207.17 3371.77 1210.4 3372.41 1219.79 3368.17 1223.85 3359.04 1222.57 3353.2 1222.57 3345.14 1221.29 3334.86 1218.71 3329 1216.74 3327.73 1212.69 3331.04 1206.59 3339.21 1192.78 3346.06 1177.5 3351.58 1160.73L3370.84 1166.16C3370.84 1168.23 3370.95 1169.59 3371.17 1170.25L3424.86 1170.25 3424.86 1159.17 3348.46 1159.17 3343.18 1133.43 3424.86 1133.43ZM3212.66 1111.11 3246.96 1111.11 3246.96 1130.48 3267.27 1130.48 3277.77 1120.01 3303.23 1135.96C3305.63 1138.94 3305.59 1141.96 3303.11 1145.01L3297.33 1150.84 3297.33 1232.72 3270.7 1232.72 3295.26 1249.03C3298.52 1251.29 3298.49 1254.14 3295.17 1257.57L3283.31 1266.65C3275.71 1279.97 3267.07 1290.29 3257.4 1297.61 3271.22 1302.31 3290.53 1306.12 3315.34 1309.05 3303.01 1320.56 3294.42 1332.72 3289.55 1345.51 3263.47 1338.4 3243.19 1330.17 3228.73 1320.81 3212.96 1329.63 3189.06 1336.6 3157.04 1341.72L3148.07 1324.52C3172.4 1317.76 3191.71 1310.18 3206 1301.77 3196.22 1292.83 3187.71 1280.82 3180.46 1265.73L3164.67 1265.73 3160.4 1240 3212.66 1240 3212.66 1227.98 3196.58 1227.98 3196.58 1233.67 3162.28 1233.67 3162.28 1230.53 3161.34 1231.15C3159.25 1232.56 3156.97 1234.18 3154.5 1236.03 3149.43 1239.21 3146.01 1241.45 3144.27 1242.77L3144.27 1312.68C3146.17 1329.51 3132.83 1339.3 3104.25 1342.03 3105.52 1331.64 3099.55 1325.51 3086.36 1323.64L3085.25 1303.92C3094.67 1305.2 3101.02 1305.84 3104.31 1305.84 3108.07 1305.84 3109.64 1304.41 3109 1301.56L3109 1260.34C3104.78 1263.99 3097.83 1267.47 3088.16 1270.78L3077.65 1234.4C3081.61 1233.32 3085.78 1232.16 3090.16 1230.91 3098.89 1229.04 3105.18 1227.38 3109 1225.95L3109 1183.4 3084.8 1183.4 3080.5 1158.61 3109 1158.61 3109 1113.01 3144.27 1113.01 3144.27 1155.33 3148.89 1150.98 3162.28 1166.17 3162.28 1128.21 3196.58 1128.21 3196.58 1129.14C3198.36 1126.39 3202.24 1122.59 3208.24 1117.74L3212.66 1126.29ZM1280.01 1106.58 1318.78 1132.12 1310.22 1144.64 1310.22 1338.14 1271.17 1338.14 1271.17 1326.74 1142.63 1326.74 1142.63 1340.03 1103.58 1340.03 1103.58 1115.15 1142.63 1115.15 1142.63 1120.86 1268.66 1120.86ZM939.116 1105.26 980.742 1121.78C977.846 1127.12 974.995 1131.16 972.19 1133.9 1005.51 1161.24 1041.29 1179.29 1079.52 1188.06 1067.74 1199.97 1058.32 1212.94 1051.26 1226.98 1041.88 1221.81 1032.89 1216.34 1024.3 1210.59L1021.28 1208.47 1026.33 1212.51 1018.45 1226.98 977.881 1226.98 977.881 1251.62 1002.89 1251.62 1017.48 1236.41 1048.18 1263.94 1040.3 1278.32 977.881 1278.32 977.881 1305.89 1017.9 1305.89 1032.39 1287.81 1067.17 1317.12 1059.42 1333.53 858.785 1333.53 851.444 1305.89 935.982 1305.89 935.982 1278.32 879.644 1278.32 873.286 1251.62 935.982 1251.62 935.982 1226.98 892.01 1226.98 887.712 1209.87C878.347 1216.67 866.631 1223 852.564 1228.87L841 1214.51C886.813 1182.24 919.519 1145.83 939.116 1105.26Z" stroke="#70AD47" stroke-width="8" stroke-linejoin="round" stroke-miterlimit="10" fill="#C5E0B4" fill-rule="evenodd"/><text fill="#000000" fill-opacity="0" font-family="Arial,Arial_MSFontService,sans-serif" font-size="240.25" x="841" y="1315.48">全国公共数据一站式搜索</text></g></svg>