<svg width="3330" height="333" xmlns="http://www.w3.org/2000/svg" xmlns:xlink="http://www.w3.org/1999/xlink" xml:space="preserve" overflow="hidden"><g transform="translate(-535 -1071)"><path d="M3177.17 1282.41C3167.88 1283.04 3157.92 1283.9 3147.28 1285.01L3144.62 1285.31 3166.8 1301.35C3164.22 1303.44 3161.61 1305.46 3158.97 1307.42L3154.94 1310.3 3157.64 1310.57C3172.87 1311.72 3179.38 1309.11 3177.17 1302.75ZM3234.88 1281.97C3257.4 1289.08 3274.68 1295.5 3286.73 1301.21 3292.26 1302.87 3294.36 1306.52 3293.04 1312.15 3291.12 1320.48 3288.85 1327.91 3286.23 1334.45 3283.27 1340.06 3278.49 1340.66 3271.88 1336.25 3270.58 1334.94 3268.12 1332.6 3264.52 1329.24 3249.42 1317.07 3235.49 1306.71 3222.73 1298.15ZM1983.94 1277.37 1983.94 1301.03 2015.53 1301.03 2015.53 1277.37ZM673.078 1273.48 673.078 1302.97 739.619 1302.97 739.619 1273.48ZM1480.56 1266.77C1510.88 1277.12 1532.43 1285.49 1545.21 1291.89 1549.22 1293.55 1550.55 1297.83 1549.19 1304.74 1545.33 1317.6 1541.44 1327.61 1537.54 1334.75 1533.83 1340.16 1528.8 1340.67 1522.43 1336.28 1509.13 1319.81 1491.46 1301.95 1469.42 1282.7ZM2959.64 1265.73C2966.8 1272.52 2973.89 1278.18 2980.9 1282.71 2986.45 1277.14 2991.36 1271.48 2995.62 1265.73ZM3655.11 1263.79 3655.11 1301.03 3728.49 1301.03 3728.49 1263.79ZM1652.84 1261.87C1652.65 1262.22 1651.88 1263.42 1650.52 1265.47 1647.98 1269.92 1646.27 1272.17 1645.4 1272.21 1646.51 1272.28 1649.3 1272.63 1653.76 1273.25 1657.54 1274.21 1660.11 1274.78 1661.46 1274.98L1662.09 1275.03 1662.16 1274.7C1662.25 1274.4 1662.37 1274.02 1662.52 1273.55 1665.67 1269.77 1668.16 1265.88 1669.99 1261.87ZM1412.69 1260.13 1446.75 1287.12C1417.29 1312.02 1387.84 1329.97 1358.38 1340.97L1346.91 1326.65C1373.82 1306.33 1395.75 1284.16 1412.69 1260.13ZM2475.14 1247.32 2475.14 1297.15 2514.51 1297.15 2514.51 1247.32ZM1960.14 1235.68C1960.01 1235.94 1959.69 1237.09 1959.17 1239.12 1958.53 1244.16 1957.92 1246.76 1957.34 1246.91L1980.65 1246.91 1980.65 1235.71 1960.2 1235.71C1960.2 1235.6 1960.18 1235.59 1960.14 1235.68ZM1924.67 1230.56 1903.51 1242.18 1903.51 1313.62 1903.58 1315.29 1911.37 1297.35C1917.94 1279.31 1922.22 1260.78 1924.19 1241.75ZM2998.31 1227.98 2998.31 1240 3004.34 1240 3014.39 1230.02 3014.39 1227.98ZM1726.38 1227.75C1725.41 1231.96 1722.82 1236.68 1718.63 1241.92L1700.41 1236.71 1717.59 1248.43 1706.72 1262.4C1703.59 1270.54 1700.25 1277.37 1696.7 1282.89 1700.44 1284.08 1705.18 1285.64 1710.93 1287.57 1717.27 1289.97 1720.12 1294.06 1719.5 1299.83 1718.13 1307.34 1716.54 1312.69 1714.74 1315.89 1724.44 1304.53 1733.9 1292.24 1743.13 1279.02 1734.98 1263.78 1729.4 1246.69 1726.38 1227.75ZM711.056 1224.1C699.916 1232.75 687.256 1239.73 673.078 1245.05L673.078 1247.75 738.953 1247.75 746.098 1242.39C733.211 1237.62 721.531 1231.53 711.056 1224.1ZM3740.06 1221.88 3778.94 1247.64 3770.39 1257.42 3770.39 1341.03 3728.49 1341.03 3728.49 1327.73 3655.11 1327.73 3655.11 1341.99 3613.21 1341.99 3613.21 1227.58 3655.11 1227.58 3655.11 1237.09 3727.69 1237.09ZM976.949 1212.05 969.577 1215.94 969.577 1290.37C969.577 1299.79 973.356 1304.49 980.915 1304.49L1018.24 1304.49C1029.24 1306.15 1036.17 1298.83 1039.01 1282.56L1039.49 1279.36 1039.4 1279.4C1034.64 1280.93 1029 1281.78 1022.5 1281.96 1022.5 1274.24 1019.15 1269.9 1012.47 1268.93L1012.22 1268.92 1012.22 1290.45 976.949 1290.45ZM908.516 1202.74 908.516 1255.83C912.466 1255.02 918.617 1253.57 926.966 1251.48L933.37 1249.86 933.37 1227.31 924.349 1231.08 912.466 1206.56 922.636 1202.74ZM1678.78 1202.35 1678.78 1225.24 1660.19 1225.24 1671.05 1228.84C1670.24 1230.89 1669.54 1233.09 1668.94 1235.46 1668.59 1235.98 1668.27 1236.4 1667.99 1236.73L1667.61 1237.07 1676.72 1237.07 1684.26 1225.71 1698.76 1235.59 1701.4 1230.11C1702.36 1228.06 1703.3 1225.97 1704.22 1223.83L1706.52 1218.31 1703.76 1221.29C1702.67 1222.38 1701.54 1223.43 1700.36 1224.44 1695.2 1227.4 1691.21 1226.21 1688.41 1220.86 1685.55 1215.14 1682.9 1210.01 1680.46 1205.45ZM2680.77 1201.46 2710.7 1225.24 2700.72 1239.57 2671.77 1239.57 2671.77 1281.24C2684.49 1280.05 2699.25 1277.84 2716.04 1274.6L2719.25 1298.45C2678.71 1313.56 2638.42 1324.64 2598.38 1331.69L2586.15 1287.92C2603.21 1287.92 2618.4 1287.08 2631.74 1285.41L2631.74 1239.57 2601.05 1239.57 2594.69 1212.87 2670.1 1212.87ZM1022.5 1196.95 1012.22 1201.79 1012.22 1249.8 1015.2 1249.66C1021.02 1249.12 1023.45 1247.07 1022.5 1243.49ZM3197.24 1195.98 3214.34 1199.54C3199.61 1211.35 3189.16 1218.05 3182.99 1219.64 3189.29 1219.64 3195.76 1219.64 3202.4 1219.64 3209.62 1213.01 3217.18 1206.03 3225.06 1198.72L3259.71 1217.3 3260.07 1215.25C3260.55 1212.9 3261.1 1210.49 3261.72 1208.03 3263.62 1201.74 3264.88 1197.72 3265.52 1195.98ZM1181.55 1193.63 1224.34 1212.05C1205.6 1244.67 1185.97 1269.56 1165.45 1286.72 1180.52 1286.75 1203.91 1286.19 1235.62 1285.03 1230.89 1278.45 1225.51 1270.49 1219.48 1261.14L1234.36 1246.82C1259.4 1263.73 1278.57 1278.19 1291.87 1290.22 1296.24 1293.34 1297.08 1298.25 1294.4 1304.96 1290.47 1314.76 1284.28 1324.54 1275.82 1334.3 1268.85 1340.65 1263.11 1340.07 1258.6 1332.56 1255.44 1324.96 1252.32 1317.95 1249.23 1311.53 1210.36 1318.45 1167.39 1324.47 1120.32 1329.58L1112.15 1288.19C1124.26 1286.12 1133.6 1281.5 1140.18 1274.33 1156.37 1251.91 1170.16 1225.02 1181.55 1193.63ZM1961.64 1192.12 1961.64 1208.13 1961.64 1210.92 1980.65 1210.92 1980.65 1192.12ZM933.37 1191.35 931.886 1199.28 933.37 1198.72ZM2363.42 1190.79C2376.34 1213.42 2385.98 1233.3 2392.33 1250.41 2394.24 1254.99 2393.54 1258.76 2390.22 1261.72 2384.48 1266.75 2378.36 1270.9 2371.86 1274.14 2365.97 1276.9 2362.01 1275.31 2359.98 1269.36 2357.44 1247.74 2353.31 1223.43 2347.6 1196.43ZM2998.31 1189.24 2998.31 1204.12 3014.39 1204.12 3014.39 1189.24ZM2947.94 1189.24 2947.94 1204.12 2964.01 1204.12 2964.01 1189.24ZM1439.42 1187.26 1439.42 1231.28 1469.15 1231.28 1469.15 1187.26ZM1752.57 1187.24C1752.49 1187.41 1751.78 1189.16 1750.44 1192.51 1748.57 1194.98 1747.44 1196.79 1747.03 1197.93 1750.78 1216.51 1755.05 1232.23 1759.87 1245.08 1765.17 1227.82 1768.13 1208.54 1768.77 1187.24ZM2276.71 1185.64 2315.28 1215.88 2305.5 1234.2 2100.1 1234.2 2093.84 1203.71 2261.32 1203.71ZM1678.78 1185.35 1678.78 1189.49 1683.85 1185.35ZM1719.65 1178.87 1716.62 1185.35 1692.6 1185.35 1694.22 1186.47C1696.49 1188.13 1698.87 1190.05 1701.35 1192.22 1705.21 1195.46 1708.23 1197.81 1710.4 1199.25 1711.28 1199.83 1711.99 1200.5 1712.52 1201.26L1712.7 1201.7 1714.46 1196.45C1716.04 1191.58 1717.54 1186.56 1718.98 1181.39ZM1925.43 1178.72 1923.07 1187.26 1903.51 1187.26 1903.51 1212.8C1907.23 1211.83 1913.63 1209.93 1922.71 1207.1L1925.25 1217.04 1925.43 1212.83ZM2913.64 1175.8 2913.39 1183.4 2895.62 1183.4 2895.62 1214.35 2897.7 1213.76C2902.37 1212.6 2906.97 1210.99 2911.49 1208.94L2913.64 1214.71ZM677.952 1161.1C687.549 1169.08 697.524 1176.32 707.878 1182.84 715.284 1176 722.051 1168.75 728.176 1161.1ZM3372.79 1159.44C3388.27 1170.03 3400.01 1178.41 3407.99 1184.57 3411.3 1187.24 3411.92 1191.3 3409.85 1196.75 3406.55 1204.69 3401.96 1211.6 3396.07 1217.49 3389.65 1223.19 3384.56 1222.64 3380.8 1215.84 3375.14 1200.75 3368.09 1185.73 3359.64 1170.76ZM3216.23 1159.17 3216.23 1170.25 3268.55 1170.25 3276.85 1159.17ZM3495.49 1155.64 3531.68 1174.3C3521.02 1189.83 3505.9 1205.81 3486.32 1222.24L3468.88 1211.84C3480.32 1194.36 3489.19 1175.63 3495.49 1155.64ZM1698.65 1153.39 1697.95 1154.14C1695.5 1156.64 1693.04 1159.08 1690.56 1161.45L1678.78 1155.79 1678.78 1161.5 1693.01 1161.5ZM2998.31 1152.43 2998.31 1167.29 3014.39 1167.29 3014.39 1152.43ZM1961.64 1150.46 1961.64 1167.32 2015.53 1167.32 2015.53 1150.46ZM2964.01 1145.54C2965.46 1146.03 2965.24 1146.59 2963.35 1147.22 2959.36 1149.2 2954.22 1150.97 2947.94 1152.54L2947.94 1165.85 2954.6 1159.68 2964.01 1172.99ZM2747.33 1131.84 2747.33 1149.3 2747.33 1164.45 2771.27 1164.45 2772.47 1163.07 2771.01 1163.07C2768.85 1162.82 2766.55 1161.52 2764.13 1159.18 2760.77 1152.46 2755.4 1143.68 2748.01 1132.83ZM1153.87 1123.35 1195.84 1141.73C1173.25 1185.24 1144.09 1221.58 1108.38 1250.74L1093.15 1238C1120.44 1204.93 1140.68 1166.71 1153.87 1123.35ZM2374.51 1115.89C2389.39 1122.51 2401.27 1128.67 2410.16 1134.37 2413.49 1136.22 2414.12 1139.96 2412.05 1145.6 2408.81 1153.4 2405.73 1158.38 2402.8 1160.54L2415.23 1160.54 2424.93 1148.18 2451.24 1170.03 2441.31 1185.34 2343.34 1185.34 2339.05 1160.54 2385.59 1160.54C2380.17 1151.51 2372.57 1140.48 2362.79 1127.44ZM976.949 1115.27 1012.22 1115.27 1012.22 1171.29 1020.32 1168.08 1031 1151.34 1068.21 1174.89 1058.7 1189.29 1058.7 1247.28C1059.77 1259.89 1056.42 1269.07 1048.65 1274.8L1045.97 1276.54 1061.7 1280.47C1058.54 1295.99 1062.34 1304.08 1073.1 1304.72 1068.96 1329.32 1055.52 1340.36 1032.77 1337.82L966.671 1337.82C944.471 1337.82 933.37 1326.47 933.37 1303.75L933.37 1273.26 928.731 1275.61C910.569 1284.6 884.809 1296.09 851.45 1310.08L840.976 1271.5C846.889 1270.6 853.978 1269.2 862.243 1267.3 866.511 1266.69 868.918 1266.29 869.463 1266.12L869.463 1202.74 847.076 1202.74 842.868 1175.11 869.463 1175.11 869.463 1117.18 908.516 1117.18 908.516 1171.38 913.541 1164.65 933.37 1182.64 933.37 1141.86 969.577 1141.86 969.577 1186.41 976.949 1183.46ZM1230.56 1114.8C1255.22 1161.57 1286.7 1195.59 1325.02 1216.85 1311.09 1225.69 1298.21 1237.3 1286.36 1251.68 1250.84 1219.14 1225.06 1176.39 1209.03 1123.44ZM1469.15 1114.01 1509.17 1114.01 1509.17 1160.56 1513.3 1160.56 1527.91 1146.3 1558.56 1172.85 1550.69 1187.26 1509.17 1187.26 1509.17 1231.28 1520.75 1231.28 1535.12 1214.17 1570.91 1240.51 1563.24 1257.98 1348.75 1257.98 1342.41 1231.28 1399.4 1231.28 1399.4 1187.26 1360.15 1187.26 1353.81 1160.56 1399.4 1160.56 1399.4 1115.92 1439.42 1115.92 1439.42 1160.56 1469.15 1160.56ZM2707.31 1113.17 2747.33 1113.17 2747.33 1125.91 2758.47 1116.69C2772.13 1122.75 2782.43 1128.61 2789.36 1134.28 2793.24 1136.19 2793.38 1139.83 2789.79 1145.2 2788.26 1147.33 2786.45 1149.69 2784.34 1152.27L2784.33 1152.28 2813.81 1174.74 2803.95 1192.09 2748.27 1192.09C2749.5 1227.97 2757.06 1260.75 2770.96 1290.43 2771.88 1293.2 2772.85 1294.58 2773.86 1294.58 2774.84 1294.58 2775.8 1293.17 2776.74 1290.34 2779.27 1284 2782.03 1275.28 2785.02 1264.17L2804.32 1271.8C2801.78 1288.11 2805.27 1297.55 2814.76 1300.13 2805.94 1330.05 2793.81 1343.75 2778.36 1341.22 2756.88 1341.85 2739.58 1323.49 2726.45 1286.12 2716.24 1257.41 2710.23 1226.07 2708.41 1192.09L2586.14 1192.09 2581.93 1164.45 2707.31 1164.45 2707.31 1147.39ZM2026.26 1112.36 2059.35 1135.17 2052.7 1143.89 2052.7 1198.76 2016.86 1198.76 2016.86 1210.92 2029.36 1210.92 2038.97 1199.51 2067.19 1220.26 2058.3 1235.71 2016.86 1235.71 2016.86 1252.57 2017.1 1252.57 2027.54 1241.16 2060.3 1263.81 2052.7 1276.31 2052.7 1338.16 2015.53 1338.16 2015.53 1326.76 1983.94 1326.76 1983.94 1338.16 1948.67 1338.16 1948.67 1265.08C1945.27 1288.66 1934.92 1312.07 1917.62 1335.3L1901.36 1325.01 1899.7 1327.51C1893.88 1334.04 1881.89 1338.58 1863.74 1341.14 1863.05 1333.2 1855.78 1327.65 1841.92 1324.5L1839.74 1305.89C1860.01 1307.78 1868.87 1306.43 1866.34 1301.81L1866.34 1257.55C1862.03 1259.97 1856.12 1262.82 1848.61 1266.11L1834.99 1226.43C1844.16 1225.63 1854.61 1224.11 1866.34 1221.88L1866.34 1187.26 1842.06 1187.26 1837.84 1160.56 1866.34 1160.56 1866.34 1112.38 1903.51 1112.38 1903.51 1159.59 1907.92 1151.1 1925.43 1168.14 1925.43 1119.98 1961.64 1119.98 1961.64 1125.67 2015.8 1125.67ZM1643.51 1112.11 1678.78 1112.11 1678.78 1146.75 1679.43 1145.16C1683.11 1135.77 1686.6 1125.65 1689.91 1114.8L1719.5 1129.77C1714.82 1135.59 1710.06 1141.14 1705.24 1146.42L1699.85 1152.12 1722.56 1167.56 1723.09 1165.43C1727 1149.02 1730.29 1131.24 1732.98 1112.11L1773.63 1118.22C1771.05 1134.22 1767.25 1148.01 1762.23 1159.61L1783 1159.61 1790.49 1147.24 1822.08 1167.81 1812.35 1187.24 1804.79 1187.24C1802.97 1223.66 1795.43 1253.28 1782.18 1276.08 1793.09 1287.9 1807.34 1298.95 1824.92 1309.23 1814.93 1319.42 1804.87 1330.23 1794.73 1341.65 1777.92 1327.13 1766.35 1314.78 1760.02 1304.6 1749.44 1318.07 1733.63 1331.37 1712.56 1344.5L1694.69 1328.83C1697.04 1327.54 1698.62 1327.38 1699.43 1328.35 1699.47 1328.35 1698.31 1327.57 1695.96 1326 1692.23 1323.51 1686.88 1320.37 1679.93 1316.59 1676.05 1313.99 1673.77 1312.22 1673.1 1311.26 1656.7 1326.37 1630.96 1336.81 1595.91 1342.59L1589.25 1322.36C1611.62 1316.99 1629.67 1309.28 1643.39 1299.23 1633.25 1296.37 1620.58 1292.76 1605.4 1288.39 1608.17 1282.06 1611.71 1275.2 1616.02 1267.8 1617.46 1264.47 1618.68 1262.53 1619.67 1261.97L1619.96 1261.87 1599.25 1261.87 1594.95 1237.07 1629.57 1237.07C1629.92 1235.81 1630.73 1233.23 1631.99 1229.32 1633.33 1224.64 1634.57 1220.57 1635.69 1217.11L1643.51 1219.71 1643.51 1200.55C1635.95 1213.43 1622.93 1224.82 1604.43 1234.74L1589.37 1223.85C1604.12 1210.88 1615.21 1198.05 1622.62 1185.35L1598.28 1185.35 1595.07 1161.5 1615.98 1161.5 1615.94 1161.46C1615.17 1160.51 1614.55 1159.25 1614.07 1157.67 1613.56 1156.65 1612.64 1154.49 1611.32 1151.19 1609.46 1145.63 1606.22 1137.5 1601.6 1126.79L1614.9 1117.65C1624.63 1123.84 1632.75 1130.19 1639.26 1136.7 1643.35 1140.66 1643.64 1144.73 1640.11 1148.92 1638.83 1151.47 1634.4 1155.65 1626.8 1161.45L1626.71 1161.5 1643.51 1161.5ZM2475.75 1111.99 2512.92 1111.99 2512.92 1153.78 2529.1 1153.78 2538.7 1140.46 2568.96 1164.07 2560.12 1180.48 2512.92 1180.48 2512.92 1220.62 2515.95 1220.62 2527.27 1207.32 2562.12 1229.96 2552.62 1243.42 2552.62 1340 2514.51 1340 2514.51 1323.85 2475.14 1323.85 2475.14 1340 2437.96 1340 2437.96 1290.02 2428.37 1293.91C2413.5 1299.5 2394.1 1305.58 2370.18 1312.14 2359.51 1315.47 2350.96 1317.8 2344.54 1319.13L2336.2 1282.52C2348.35 1280.32 2366.19 1278.31 2389.72 1276.51 2395.84 1247.79 2400.23 1217.95 2402.89 1186.99L2438.9 1194.24C2430.55 1227.42 2422.31 1253.49 2414.2 1272.46 2414.26 1272.54 2417.13 1272.26 2422.81 1271.63 2428.11 1270.3 2433 1269.63 2437.48 1269.63L2437.96 1271.77 2437.96 1214.93 2475.14 1214.93 2475.14 1220.62 2475.75 1220.62ZM3176.21 1111.59 3216.23 1111.59 3216.23 1133.43 3261.64 1133.43 3269.17 1120.11 3296.97 1139.9 3286.23 1159.17 3277.6 1159.17 3312.17 1183.73 3298.64 1197.37C3295.8 1200.21 3292.61 1204.29 3289.06 1209.63 3283.78 1216.26 3279.87 1221.21 3277.33 1224.48L3258.86 1222.15 3259.43 1218.94 3251.84 1224.23C3231 1238.41 3211.85 1248.9 3194.39 1255.71 3197.44 1255.72 3205.15 1255.72 3217.52 1255.72 3223.5 1255.41 3228.43 1255.17 3232.31 1255.01L3237.98 1254.85 3237.77 1254.74C3237.28 1254.37 3236.73 1253.89 3236.12 1253.29 3233.57 1250.1 3231.02 1246.86 3228.46 1243.57L3242.39 1231.96C3255.94 1239.31 3269.06 1247.41 3281.73 1256.28 3287.46 1260.13 3288.99 1264.76 3286.32 1270.16 3283.66 1275.47 3279.62 1281.53 3274.18 1288.33 3268.64 1291.98 3263.97 1291.44 3260.18 1286.71 3259.39 1285.13 3258.04 1282.76 3256.13 1279.59 3255.12 1277.55 3254.42 1276.27 3254.06 1275.76 3241.83 1277.65 3228.9 1278.88 3215.28 1279.44L3215.28 1308.88C3219.08 1332.4 3204.48 1344.15 3171.46 1344.15 3171.46 1334.02 3165.24 1329.27 3152.81 1329.91L3150.94 1313.14 3142.82 1318.41C3129.08 1326.92 3114.63 1333.81 3099.48 1339.07L3086.91 1325.75C3102.75 1315.11 3117.94 1302.36 3132.48 1287.51L3133.38 1286.57 3130.82 1286.86C3125.16 1287.54 3119.33 1288.27 3113.33 1289.07L3105.93 1259.8C3133.06 1257.78 3151.27 1253.98 3160.56 1248.41 3162.23 1247.58 3164.53 1246.16 3167.46 1244.14L3167.87 1243.86 3165.8 1244.18C3160.94 1244.97 3155.01 1246.01 3148 1247.28 3140.53 1247.89 3134.38 1248.52 3129.55 1249.17L3122.07 1220.58C3124.96 1220.58 3127.41 1220.33 3129.43 1219.83 3136.45 1218.55 3142.89 1216.74 3148.75 1214.4 3154.2 1211.97 3161.46 1205.83 3170.52 1195.98L3124.08 1195.98C3124.08 1202.37 3123.76 1207.17 3123.13 1210.4 3123.76 1219.79 3119.52 1223.85 3110.4 1222.57 3104.56 1222.57 3096.49 1221.29 3086.21 1218.71 3080.36 1216.74 3079.09 1212.69 3082.4 1206.59 3090.57 1192.78 3097.42 1177.5 3102.94 1160.73L3122.19 1166.16C3122.19 1168.23 3122.3 1169.59 3122.52 1170.25L3176.21 1170.25 3176.21 1159.17 3099.82 1159.17 3094.54 1133.43 3176.21 1133.43ZM2964.01 1111.11 2998.31 1111.11 2998.31 1130.48 3018.62 1130.48 3029.13 1120.01 3054.59 1135.96C3056.98 1138.94 3056.94 1141.96 3054.47 1145.01L3048.69 1150.84 3048.69 1232.72 3022.06 1232.72 3046.61 1249.03C3049.87 1251.29 3049.84 1254.14 3046.52 1257.57L3034.67 1266.65C3027.06 1279.97 3018.42 1290.29 3008.76 1297.61 3022.57 1302.31 3041.88 1306.12 3066.7 1309.05 3054.37 1320.56 3045.77 1332.72 3040.91 1345.51 3014.82 1338.4 2994.55 1330.17 2980.09 1320.81 2964.31 1329.63 2940.42 1336.6 2908.4 1341.72L2899.42 1324.52C2923.75 1317.76 2943.06 1310.18 2957.35 1301.77 2947.57 1292.83 2939.06 1280.82 2931.82 1265.73L2916.03 1265.73 2911.76 1240 2964.01 1240 2964.01 1227.98 2947.94 1227.98 2947.94 1233.67 2913.64 1233.67 2913.64 1230.53 2912.7 1231.15C2910.6 1232.56 2908.32 1234.18 2905.86 1236.03 2900.78 1239.21 2897.37 1241.45 2895.62 1242.77L2895.62 1312.68C2897.52 1329.51 2884.18 1339.3 2855.6 1342.03 2856.87 1331.64 2850.91 1325.51 2837.71 1323.64L2836.61 1303.92C2846.02 1305.2 2852.37 1305.84 2855.66 1305.84 2859.43 1305.84 2860.99 1304.41 2860.35 1301.56L2860.35 1260.34C2856.14 1263.99 2849.19 1267.47 2839.51 1270.78L2829.01 1234.4C2832.96 1233.32 2837.13 1232.16 2841.51 1230.91 2850.25 1229.04 2856.53 1227.38 2860.35 1225.95L2860.35 1183.4 2836.15 1183.4 2831.85 1158.61 2860.35 1158.61 2860.35 1113.01 2895.62 1113.01 2895.62 1155.33 2900.24 1150.98 2913.64 1166.17 2913.64 1128.21 2947.94 1128.21 2947.94 1129.14C2949.71 1126.39 2953.6 1122.59 2959.59 1117.74L2964.01 1126.29ZM3508.62 1110.44 3540.22 1138.01 3532.29 1151.42 3464.24 1151.42 3464.24 1228.39 3510.95 1228.39 3525.34 1211.27 3561.13 1238.6 3553.45 1256.03 3464.24 1256.03 3464.24 1340.56 3422.34 1340.56 3422.34 1256.03 3339.45 1256.03 3332.11 1228.39 3422.34 1228.39 3422.34 1151.42 3358.4 1151.42 3352.04 1124.72 3494.01 1124.72ZM3660.92 1110.05 3711.34 1125.44C3691.15 1152.71 3673.1 1172.27 3657.2 1184.14 3681.07 1183.54 3706.05 1182.39 3732.13 1180.71 3726.05 1173.93 3719.4 1165.85 3712.18 1156.46L3728.46 1146.15C3754.56 1163.11 3775.81 1178.23 3792.22 1191.5 3795.92 1193.96 3796.44 1197.91 3793.76 1203.35 3789.14 1212.57 3783.68 1221.6 3777.37 1230.43 3771.49 1235.74 3766.58 1235.24 3762.66 1228.93 3759.29 1223.31 3754.69 1216.33 3748.88 1208 3698.38 1216.83 3650.94 1223.16 3606.57 1226.99L3594.4 1183.19C3607.39 1184.45 3617.02 1181.94 3623.28 1175.67 3636.42 1160.64 3648.96 1138.77 3660.92 1110.05ZM655.822 1106.85 699.749 1122.17C698.851 1125.01 697.13 1128.01 694.588 1131.18 692.63 1134.42 691.182 1135.82 690.243 1135.37L736.38 1135.37 752.062 1122.05 787.224 1156.34 770.074 1166.24C760.084 1179.98 749.635 1191.5 738.726 1200.81 760.876 1209.92 789.707 1216.19 825.217 1219.61 815.439 1233.04 807.77 1246.87 802.21 1261.11 798.032 1260.45 793.466 1259.49 788.511 1258.25 783.274 1256.29 776.19 1253.76 767.259 1250.64L787.224 1260.11 778.672 1269.91 778.672 1341.05 739.619 1341.05 739.619 1328.7 673.078 1328.7 673.078 1341.05 634.026 1341.05 634.026 1255.41C626.306 1257.91 615.281 1260.13 600.952 1262.07L593.187 1242.8C632.048 1232.93 662.775 1219.71 685.369 1203.15 676.338 1194.85 667.997 1184.66 660.348 1172.58 648.098 1186.53 634.666 1199.55 620.054 1211.61L603.631 1200.99C626.528 1174.61 643.925 1143.23 655.822 1106.85Z" stroke="#70AD47" stroke-width="8" stroke-linejoin="round" stroke-miterlimit="10" fill="#C5E0B4" fill-rule="evenodd"/><text fill="#000000" fill-opacity="0" font-family="Arial,Arial_MSFontService,sans-serif" font-size="238.661" x="593.187" y="1315.68">各地公共数据一站式搜索平台</text></g></svg>