<svg width="2764" height="835" xmlns="http://www.w3.org/2000/svg" xmlns:xlink="http://www.w3.org/1999/xlink" xml:space="preserve" overflow="hidden"><defs><clipPath id="clip0"><rect x="873" y="355" width="2764" height="835"/></clipPath><clipPath id="clip1"><rect x="980" y="818" width="301" height="300"/></clipPath><clipPath id="clip2"><rect x="980" y="818" width="301" height="300"/></clipPath><clipPath id="clip3"><rect x="980" y="818" width="301" height="300"/></clipPath><clipPath id="clip4"><rect x="964" y="396" width="331" height="330"/></clipPath><clipPath id="clip5"><rect x="964" y="396" width="331" height="330"/></clipPath><clipPath id="clip6"><rect x="964" y="396" width="331" height="330"/></clipPath></defs><g clip-path="url(#clip0)" transform="translate(-873 -355)"><text font-family="Times New Roman,Times New Roman_MSFontService,sans-serif" font-weight="400" font-size="73" transform="matrix(1 0 0 1 1536.88 504)">Crawling</text><path d="M1.98395e-06-3.4375 602.386-3.43715 602.386 3.43785-1.98395e-06 3.4375ZM597.802-13.7497 625.302 0.000360892 597.802 13.7503Z" transform="matrix(1 0 0 -1 1359.5 544.5)"/><path d="M3147.5 872.667C3147.5 846.065 3250.25 824.5 3377 824.5 3503.75 824.5 3606.5 846.065 3606.5 872.667L3606.5 1065.33C3606.5 1091.93 3503.75 1113.5 3377 1113.5 3250.25 1113.5 3147.5 1091.93 3147.5 1065.33Z" fill="#DAE3F3" fill-rule="evenodd"/><path d="M3606.5 872.667C3606.5 899.268 3503.75 920.833 3377 920.833 3250.25 920.833 3147.5 899.268 3147.5 872.667" stroke="#8FAADC" stroke-width="4.58333" stroke-miterlimit="8" fill="none" fill-rule="evenodd"/><path d="M3147.5 872.667C3147.5 846.065 3250.25 824.5 3377 824.5 3503.75 824.5 3606.5 846.065 3606.5 872.667L3606.5 1065.33C3606.5 1091.93 3503.75 1113.5 3377 1113.5 3250.25 1113.5 3147.5 1091.93 3147.5 1065.33Z" stroke="#8FAADC" stroke-width="4.58333" stroke-miterlimit="8" fill="none" fill-rule="evenodd"/><text font-family="Times New Roman,Times New Roman_MSFontService,sans-serif" font-weight="400" font-size="73" transform="matrix(1 0 0 1 3253.85 975)">Inverted </text><text font-family="Times New Roman,Times New Roman_MSFontService,sans-serif" font-weight="400" font-size="73" transform="matrix(1 0 0 1 3292.8 1063)">Index</text><g clip-path="url(#clip1)"><g clip-path="url(#clip2)"><g clip-path="url(#clip3)"><path d="M200 93.7499C200 121.364 177.614 143.75 150 143.75 122.386 143.75 99.9999 121.364 99.9999 93.7499 99.9999 66.1357 122.386 43.75 150 43.75 177.614 43.75 200 66.1357 200 93.7499Z" transform="matrix(1 0 0 1 980 818)"/><path d="M250 256.25 250 206.25C250 198.75 246.25 191.25 240 186.25 226.25 175 208.75 167.5 191.25 162.5 178.75 158.75 165 156.25 150 156.25 136.25 156.25 122.5 158.75 108.75 162.5 91.2499 167.5 73.7499 176.25 60 186.25 53.75 191.25 50 198.75 50 206.25L50 256.25 250 256.25Z" transform="matrix(1 0 0 1 980 818)"/></g></g></g><path d="M1808.5 823.334C1808.5 783.109 1841.11 750.5 1881.33 750.5L2955.67 750.5C2995.89 750.5 3028.5 783.109 3028.5 823.334L3028.5 1114.67C3028.5 1154.89 2995.89 1187.5 2955.67 1187.5L1881.33 1187.5C1841.11 1187.5 1808.5 1154.89 1808.5 1114.67Z" stroke="#A9D18E" stroke-width="4.58333" stroke-miterlimit="8" fill="#E2F0D9" fill-rule="evenodd"/><text font-family="Times New Roman,Times New Roman_MSFontService,sans-serif" font-weight="700" font-size="73" transform="matrix(1 0 0 1 2182.62 833)">Dataset Search</text><path d="M1866.5 880.501C1866.5 864.484 1879.48 851.5 1895.5 851.5L2358.5 851.5C2374.52 851.5 2387.5 864.484 2387.5 880.501L2387.5 996.499C2387.5 1012.52 2374.52 1025.5 2358.5 1025.5L1895.5 1025.5C1879.48 1025.5 1866.5 1012.52 1866.5 996.499Z" stroke="#A9D18E" stroke-width="4.58333" stroke-miterlimit="8" fill="#C5E0B4" fill-rule="evenodd"/><text font-family="Times New Roman,Times New Roman_MSFontService,sans-serif" font-weight="400" font-size="64" transform="matrix(1 0 0 1 1918.02 923)">Keyword</text><text font-family="Times New Roman,Times New Roman_MSFontService,sans-serif" font-weight="400" font-size="64" transform="matrix(1 0 0 1 2156.93 923)">-</text><text font-family="Times New Roman,Times New Roman_MSFontService,sans-serif" font-weight="400" font-size="64" transform="matrix(1 0 0 1 2178.13 923)">Based </text><text font-family="Times New Roman,Times New Roman_MSFontService,sans-serif" font-weight="400" font-size="64" transform="matrix(1 0 0 1 2009.12 1000)">Retrieval</text><path d="M2449.5 880.501C2449.5 864.484 2462.48 851.5 2478.5 851.5L2941.5 851.5C2957.52 851.5 2970.5 864.484 2970.5 880.501L2970.5 996.499C2970.5 1012.52 2957.52 1025.5 2941.5 1025.5L2478.5 1025.5C2462.48 1025.5 2449.5 1012.52 2449.5 996.499Z" stroke="#A9D18E" stroke-width="4.58333" stroke-miterlimit="8" fill="#C5E0B4" fill-rule="evenodd"/><text font-family="Times New Roman,Times New Roman_MSFontService,sans-serif" font-weight="400" font-size="64" transform="matrix(1 0 0 1 2500.49 923)">Diversity</text><text font-family="Times New Roman,Times New Roman_MSFontService,sans-serif" font-weight="400" font-size="64" transform="matrix(1 0 0 1 2739.4 923)">-</text><text font-family="Times New Roman,Times New Roman_MSFontService,sans-serif" font-weight="400" font-size="64" transform="matrix(1 0 0 1 2760.6 923)">Based </text><text font-family="Times New Roman,Times New Roman_MSFontService,sans-serif" font-weight="400" font-size="64" transform="matrix(1 0 0 1 2554.07 1000)">Re</text><text font-family="Times New Roman,Times New Roman_MSFontService,sans-serif" font-weight="400" font-size="64" transform="matrix(1 0 0 1 2625.69 1000)">-</text><text font-family="Times New Roman,Times New Roman_MSFontService,sans-serif" font-weight="400" font-size="64" transform="matrix(1 0 0 1 2646.88 1000)">Ranking</text><path d="M1867.5 1065.83C1867.5 1054.6 1876.6 1045.5 1887.83 1045.5L2950.17 1045.5C2961.4 1045.5 2970.5 1054.6 2970.5 1065.83L2970.5 1147.17C2970.5 1158.4 2961.4 1167.5 2950.17 1167.5L1887.83 1167.5C1876.6 1167.5 1867.5 1158.4 1867.5 1147.17Z" stroke="#A9D18E" stroke-width="4.58333" stroke-miterlimit="8" fill="#C5E0B4" fill-rule="evenodd"/><text font-family="Times New Roman,Times New Roman_MSFontService,sans-serif" font-weight="400" font-size="64" transform="matrix(1 0 0 1 2094.67 1129)">Attribute</text><text font-family="Times New Roman,Times New Roman_MSFontService,sans-serif" font-weight="400" font-size="64" transform="matrix(1 0 0 1 2326.13 1129)">-</text><text font-family="Times New Roman,Times New Roman_MSFontService,sans-serif" font-weight="400" font-size="64" transform="matrix(1 0 0 1 2347.33 1129)">Based Filtering</text><path d="M1267.5 882.062 1785.76 882.063 1785.76 888.938 1267.5 888.938ZM1781.17 871.75 1808.67 885.5 1781.17 899.25Z"/><text font-family="Times New Roman,Times New Roman_MSFontService,sans-serif" font-weight="400" font-size="73" transform="matrix(1 0 0 1 1445.88 849)">Query</text><path d="M2483.5 541.062 3105.01 541.063 3105.01 547.938 2483.5 547.938ZM3100.43 530.75 3127.93 544.5 3100.43 558.25Z"/><path d="M1981.5 365.5 2382.5 365.5 2382.5 574.808C2182 574.808 2182 654.558 1981.5 609.245Z" stroke="#FFD966" stroke-width="4.58333" stroke-miterlimit="8" fill="#FFF2CC" fill-rule="evenodd"/><path d="M2029.5 414.5 2430.5 414.5 2430.5 623.005C2230 623.005 2230 702.45 2029.5 657.311Z" stroke="#FFD966" stroke-width="4.58333" stroke-miterlimit="8" fill="#FFF2CC" fill-rule="evenodd"/><path d="M2078.5 462.5 2479.5 462.5 2479.5 671.006C2279 671.006 2279 750.45 2078.5 705.311Z" stroke="#FFD966" stroke-width="4.58333" stroke-miterlimit="8" fill="#FFF2CC" fill-rule="evenodd"/><text font-family="Times New Roman,Times New Roman_MSFontService,sans-serif" font-weight="400" font-size="73" transform="matrix(1 0 0 1 2167.72 549)">Dataset </text><text font-family="Times New Roman,Times New Roman_MSFontService,sans-serif" font-weight="400" font-size="73" transform="matrix(1 0 0 1 2141.1 637)">Metadata</text><text font-family="Times New Roman,Times New Roman_MSFontService,sans-serif" font-weight="400" font-size="73" transform="matrix(1 0 0 1 2640.83 504)">Integration</text><path d="M3379.94 722.5 3379.94 801.627 3373.06 801.627 3373.06 722.5ZM3390.25 797.044 3376.5 824.544 3362.75 797.044Z"/><path d="M1.04097e-05-3.4375 96.2579-3.43721 96.2579 3.43779-1.04097e-05 3.4375ZM91.6747-13.7497 119.175 0.000360892 91.6746 13.7503Z" transform="matrix(-1 0 0 1 3147.67 968.5)"/><path d="M3129.5 365.5 3530.5 365.5 3530.5 574.808C3330 574.808 3330 654.558 3129.5 609.245Z" stroke="#FFD966" stroke-width="4.58333" stroke-miterlimit="8" fill="#FFE699" fill-rule="evenodd"/><path d="M3177.5 414.5 3578.5 414.5 3578.5 623.005C3378 623.005 3378 702.45 3177.5 657.311Z" stroke="#FFD966" stroke-width="4.58333" stroke-miterlimit="8" fill="#FFE699" fill-rule="evenodd"/><path d="M3225.5 462.5 3626.5 462.5 3626.5 671.006C3426 671.006 3426 750.45 3225.5 705.311Z" stroke="#FFD966" stroke-width="4.58333" stroke-miterlimit="8" fill="#FFE699" fill-rule="evenodd"/><text font-family="Times New Roman,Times New Roman_MSFontService,sans-serif" font-weight="400" font-size="73" transform="matrix(1 0 0 1 3276.06 549)">Integrated </text><text font-family="Times New Roman,Times New Roman_MSFontService,sans-serif" font-weight="400" font-size="73" transform="matrix(1 0 0 1 3288.39 637)">Metadata</text><path d="M1338.5 924.5 1739.5 924.5 1739.5 1133.01C1539 1133.01 1539 1212.45 1338.5 1167.31Z" stroke="#FFD966" stroke-width="4.58333" stroke-miterlimit="8" fill="#FFE699" fill-rule="evenodd"/><text font-family="Times New Roman,Times New Roman_MSFontService,sans-serif" font-weight="400" font-size="73" transform="matrix(1 0 0 1 1408.27 1012)">Relevant </text><text font-family="Times New Roman,Times New Roman_MSFontService,sans-serif" font-weight="400" font-size="73" transform="matrix(1 0 0 1 1414.27 1100)">Datasets</text><text font-family="Times New Roman,Times New Roman_MSFontService,sans-serif" font-weight="700" font-size="73" transform="matrix(1 0 0 1 917.111 449)">Local PDOPs</text><g clip-path="url(#clip4)"><g clip-path="url(#clip5)"><g clip-path="url(#clip6)"><path d="M1033.75 643.225C1037.23 643.414 1047.37 643.5 1047.37 643.5L1233.14 643.5C1256 643.41 1274.47 624.801 1274.38 601.936 1274.29 579.334 1256.08 560.98 1233.48 560.703L1230.05 560.703C1230.01 544.046 1221.95 528.426 1208.39 518.753 1194.65 509.14 1177.13 506.711 1161.29 512.222 1145.74 481.819 1108.49 469.778 1078.09 485.328 1057.52 495.85 1044.53 516.965 1044.41 540.073L1044.41 540.76C1041.72 540.319 1038.99 540.097 1036.25 540.096 1007.72 540.062 984.57 563.164 984.536 591.694 984.528 599.283 986.191 606.782 989.409 613.655 997.76 630.803 1014.71 642.109 1033.75 643.225ZM1000.4 564.837C1008.98 553.697 1022.19 547.111 1036.25 546.97 1038.61 546.972 1040.97 547.164 1043.3 547.544L1051.29 548.85 1051.29 540.071C1051.47 509.715 1076.23 485.258 1106.59 485.445 1127.1 485.571 1145.83 497.105 1155.18 515.361L1157.91 520.678 1163.55 518.714C1186.75 510.421 1212.27 522.502 1220.57 545.698 1222.29 550.513 1223.17 555.589 1223.17 560.703L1223.17 567.578 1233.48 567.578C1252.55 567.859 1267.78 583.542 1267.5 602.607 1267.22 621.412 1251.95 636.536 1233.14 636.625L1040.25 636.625 1034.13 636.36C1009.48 635.297 990.369 614.459 991.432 589.816 991.821 580.773 994.95 572.062 1000.4 564.837Z" stroke="#5B9BD5" stroke-width="4.58332" fill="#5B9BD5"/></g></g></g><path d="M1.6224e-05-3.4375 53.5481-3.43725 53.5481 3.43775-1.6224e-05 3.4375ZM48.9649-13.7498 76.4648 0.000360892 48.9647 13.7502Z" transform="matrix(-1 0 0 1 1338.96 1054.5)"/><path d="M1.79632e-05-3.4375 46.1448-3.43726 46.1448 3.43774-1.79632e-05 3.4375ZM41.5615-13.7498 69.0614 0.000360892 41.5614 13.7502Z" transform="matrix(-1 0 0 1 1808.56 1054.5)"/></g></svg>